<svg xmlns="http://www.w3.org/2000/svg" viewBox="-295 406 128 120">
  <g fill="#000">
    <path d="M-282.6 484.7c-2.7 2.6-5.2 8.4-7.4 17.5s-3.3 15.8-3.3 19.9c.2 2.5 1.9 3.7 4.9 3.4 3-.3 6.7-2.4 10.9-6.3s7-7 8.4-9.3c1.4-2.3 2.1-3.7 2.2-4.3s-.3-.9-.9-1c-.7-.1-1.5 1.1-2.5 3.5s-3.8 5.6-8.2 9.5c-4.4 3.9-7.8 5.8-10 5.8s-3.1-2.1-2.5-6.3c.6-4.2 2-10.9 4.2-20s6-13.5 11.2-13.3c2.2.5 3.2.5 3.2-.2-.2-.8-1.1-1.5-2.8-2-2.2-.5-4.7.5-7.4 3.1m17.5 14.2v1.6l-1.1 1.7.2.6c.8.1 1.2.2 1.1.3.1 2.5.2 7 .3 13.4 0 .8.2 1.3.7 1.3h.7c.6 0 .7-.7.5-2.2l-.6-13.1c3.4-3.4 5.8-5.1 7.2-5.1l3.1.1c.5 0 .8-.4.8-1.2v-.8l-.3-.2c-3.8-.1-6.4.5-7.9 1.8s-2.5 1.9-2.7 1.9c-.2 0-.2-.2-.3-.7 0-2.3 0-3.8.1-4.5s-.4-1.2-1.4-1.4c-.8.3-.8 2.5-.4 6.5m16.7-3.1c-.7.7-1.5 1.9-2.4 3.5-.8 1.6-1.8 4.8-2.9 9.7-.2 2-.5 3.5-.9 4.5l.1.5c1.4 2.5 2.5 3.8 3.5 3.8h.4c3.3 0 6-1.9 8.1-5.8 2-3.9 3.3-6.8 3.8-8.8.5-1.9.4-2.9-.1-2.9h-.2c-.3 0-.6.5-.8 1.5-.2 1-1.3 3.6-3.3 7.8s-4.1 6.4-6.5 6.5h-.3c-.6 0-1.2-.3-1.6-1v-.4l1.8-1.5c4.3-6.7 6.3-11.5 6.2-14.3-.1-2.8-1-4.2-2.5-4.3h-.3c-.6 0-1.3.4-2.1 1.2m-2.4 8.3c1.7-4.9 3.3-7.5 4.7-7.9.6.5.9 1.6.9 3.3s-.9 4.3-2.7 7.6c-1.8 3.4-3 5.1-3.6 5.1-.4 0-.6-.5-.7-1.5v-.9c.1-1 .5-3 1.4-5.7m14.8-.6c-2 5.1-3 8.8-3 11.2v.6c.1 1.4.7 2 1.9 2h.6c1.4 0 3-1 4.9-3.1l3.3-5.2h.2l.5 11.4c0 .8.6 1 1.9.7-.1-1.6-.3-5.7-.6-12.4 0-1.4.1-5.9.2-13.3v-.1c-.4-.5-.8-.8-1.1-.8h-.2l-.9 9.6c-3.2 7.6-5.8 11.4-7.8 11.4-.8 0-1.1-.4-1.1-1.2v-.2c.5-3.7 1.7-7.6 3.6-11.6 1.9-4 3.4-6.1 4.6-6.3 1.2-.2 1.8-.4 1.8-.6v-1.1c0-.3-.7-.3-2.2 0-2.4 1.1-4.6 3.9-6.6 9m17.5-19.5c.1 1.7.2 4.1.2 7.1 0 3.1-.1 4.6-.2 4.6 0 .4-.1.6-.2.6-3.1 0-4.7.3-4.8 1.1v.2c-.1.7.2 1.1.7 1.2h.4l3.9-.3-.1.7-.4 17.6c0 2.6.1 5.5.2 8.6.3.3.7.4 1.2.2.4-.1.6-2.2.5-6.3l.4-20.4c.1-.8.1-1.1.2-1 4.4-.3 6.6-.8 6.7-1.6v-.2c-.1-.4-.3-.7-.7-.9h-.2c-3.1.3-5 .4-5.6.3h-.4l-.1-.4c.5-9.7.4-14.4-.2-14l-.5-.1c-.8.4-1.2 1.3-1 3m20.7 10.4c-.8 0-1.3 1-1.5 2.9 0 4.3-.8 8.2-2.4 11.9-1.6 3.7-3.4 5.9-5.3 6.7-1.3-.4-2.1-2.4-2.4-6l.2-8.9v-3.6c0-1.1-.1-1.7-.3-1.9h-.1c-1.1-.4-1.6 3-1.4 10.3v2.9c.2 2.9.5 5.1.9 6.5.4 1.5 1.3 2.2 2.7 2.2h.3c2.2-.4 4.1-2.4 5.8-5.9 1.7-3.5 2.7-5.4 2.8-5.6.2 0 .3 3.1.3 9.2 0 4.2.2 6.3.7 6.3h.7c.6 0 .8-1 .6-2.9-.3-1.9-.4-6.5-.4-13.6-.1-7-.5-10.5-1.2-10.5m4.9 4.5v1.6l-1.1 1.7.2.6c.8.1 1.2.2 1.1.3.1 2.5.2 7 .3 13.4 0 .8.2 1.3.7 1.3h.7c.6 0 .7-.7.5-2.2l-.6-13.1c3.4-3.4 5.8-5.1 7.2-5.1l3.1.1c.5 0 .8-.4.8-1.2v-.8l-.3-.2c-3.8-.1-6.4.5-7.9 1.8s-2.5 1.9-2.7 1.9c-.2 0-.2-.2-.3-.7 0-2.3 0-3.8.1-4.5.1-.7-.4-1.2-1.4-1.4-.8.3-.9 2.5-.4 6.5m15.9-3.1c-.7.7-1.5 1.9-2.4 3.5-.8 1.6-1.8 4.8-2.9 9.7-.2 2-.5 3.5-.9 4.5l.1.5c1.4 2.5 2.5 3.8 3.5 3.8h.4c3.3 0 6-1.9 8.1-5.8 2-3.9 3.3-6.8 3.8-8.8.5-1.9.4-2.9-.1-2.9h-.2c-.3 0-.6.5-.8 1.5-.2 1-1.3 3.6-3.3 7.8-2 4.2-4.1 6.4-6.5 6.5h-.3c-.6 0-1.2-.3-1.6-1v-.4l1.8-1.5c4.3-6.7 6.3-11.5 6.2-14.3-.1-2.8-1-4.2-2.5-4.3h-.3c-.6 0-1.3.4-2.1 1.2m-2.4 8.3c1.7-4.9 3.3-7.5 4.7-7.9.6.5.9 1.6.9 3.3s-.9 4.3-2.7 7.6c-1.8 3.4-3 5.1-3.6 5.1-.4 0-.6-.5-.7-1.5v-.9c.1-1 .5-3 1.4-5.7M-284.8 457.2c-2.1 1.5-3.1 3.6-3.2 6.5-.1 2.8 2.2 5 6.9 6.4 4.7 1.4 6.7 2.9 6 4.3-.7 1.4-2.9 2-6.5 1.8h-.9c-3.6-.5-5.3-1.7-5.3-3.6.1-1.1-.2-1.9-.9-2.5-.6-.6-1 .1-1 2.1s.6 3.4 1.9 4.2c1.3.8 3.2 1.3 5.8 1.4 2.3.2 4.3 0 5.8-.8s2.4-1.8 2.7-2.9c.3-1.1-.4-2.2-1.9-3-1.5-.9-3.4-1.7-5.5-2.5-3.6-1.3-5.3-2.8-5.3-4.5 0-1.7.5-3.2 1.6-4.6 1-1.4 2.8-2.2 5.3-2.4 2.1.2 3.2.9 3.2 2v.6c0 .7-.4 2-1.3 3.8v.3l.2.2h.7l.9-.7c1.1-1.3 1.7-2.8 1.7-4.5v-.2c-.8-2.1-2.3-3.2-4.5-3.3-2.3-.3-4.4.4-6.4 1.9m19.4-.6l-2.5 5.4h-.1l-.1-.8.1-1.1v-2.7c0-1-.3-1.6-1-1.6s-1.2.3-1.6.8v.2c.5 2.3.7 4 .7 5-.1 7.5-.3 12.3-.6 14.4 0 .6.5 1 1.6 1.4.3-.1.6-.5.8-1.3.5-5.6.9-9.4 1.5-11.5.8-3.7 1.8-6.2 3-7.6h.2c.4 0 .7 6.2 1 18.6 0 .8.2 1.3.7 1.3h.5c.4 0 .7-.1 1-.4.4-7.7.8-11.5 1.2-11.5 1.5-4.3 2.8-7 4.1-8.2h.3c.2 1 .3 2.1.3 3.3l-.1 15.5c0 .1.4.3 1.2.5h.1c.3-.1.5-.5.5-1.2v-3.8l.2-13.8v-.5c0-1.7-.4-2.5-1.3-2.5h-.4c-1 0-2.3 1.4-3.9 4.3-1.6 3.6-2.5 5.6-2.6 5.7l-.3-3.7c0-4.4-.5-6.6-1.4-6.6h-.4c-.9.2-1.7.9-2.7 2.4m18.6 6.9c-2.1 5.1-3.1 8.8-3.1 11.2v.6c.1 1.4.8 2 1.9 2h.6c1.4 0 3.1-1 5-3.1l3.4-5.1h.2l.5 11.4c0 .8.6 1 1.9.7-.1-1.6-.3-5.7-.6-12.3 0-1.4.1-5.8.2-13.2v-.1c-.4-.5-.8-.8-1.2-.8h-.2s-.4 3.2-1 9.5c-3.3 7.6-6 11.3-8 11.3-.8 0-1.2-.4-1.2-1.2v-.2c.5-3.7 1.7-7.5 3.7-11.5 1.9-4 3.5-6.1 4.8-6.2 1.2-.2 1.9-.4 1.9-.6v-1.1c0-.3-.7-.3-2.2 0-2.3.8-4.5 3.7-6.6 8.7m13.8-21.7c0 .6.2 3.8.5 9.5.2 21.6.4 32.7.7 33.4 0 1.5.6 2.4 1.9 2.6h.4c.6 0 1-.4 1.1-1.2-.1-1-.3-1.5-.6-1.5h-.1l-.5.6-.3-.3c-.4 0-.8-13.8-1.1-41.5.1-1.6-.2-2.5-.9-2.6-.6 0-1 .3-1.1 1m6.8 0c0 .6.2 3.8.5 9.5.2 21.6.4 32.7.7 33.4 0 1.5.6 2.4 1.9 2.6h.4c.6 0 1-.4 1.1-1.2-.1-1-.3-1.5-.6-1.5h-.1l-.5.6-.3-.3c-.4 0-.8-13.8-1.1-41.5.1-1.6-.2-2.5-.9-2.6-.7 0-1.1.3-1.1 1m11 14c-.8.7-1.6 1.9-2.4 3.5-.8 1.6-1.8 4.8-2.9 9.7-.2 2-.5 3.5-1 4.5l.1.5c1.4 2.5 2.6 3.8 3.6 3.8h.4c3.4 0 6.2-1.9 8.3-5.8 2.1-3.9 3.4-6.8 3.9-8.7s.5-2.9-.1-2.9h-.2c-.3 0-.6.5-.8 1.5-.2 1-1.3 3.6-3.4 7.8-2 4.2-4.2 6.3-6.7 6.5h-.3c-.6 0-1.2-.3-1.6-1v-.4l1.8-1.5c4.4-6.7 6.5-11.5 6.4-14.3-.1-2.8-1-4.2-2.6-4.3h-.3c-.7 0-1.4.4-2.2 1.1m-2.5 8.3c1.7-4.8 3.4-7.5 4.9-7.8.6.5 1 1.6 1 3.3 0 1.7-.9 4.2-2.8 7.6-1.8 3.4-3.1 5-3.7 5-.4 0-.6-.5-.7-1.5v-.9c0-1.1.4-3 1.3-5.7m17.8-6.9c-2.1 1.5-3.1 3.6-3.2 6.5-.1 2.8 2.2 5 6.9 6.4 4.7 1.4 6.7 2.9 6 4.3-.7 1.4-2.9 2-6.5 1.8h-.9c-3.6-.5-5.3-1.7-5.3-3.6.1-1.1-.2-1.9-.9-2.5-.6-.6-1 .1-1 2.1s.6 3.4 1.9 4.2c1.3.8 3.2 1.3 5.8 1.4 2.3.2 4.3 0 5.8-.8s2.4-1.8 2.7-2.9c.3-1.1-.4-2.2-1.9-3-1.5-.9-3.4-1.7-5.5-2.5-3.6-1.3-5.3-2.8-5.3-4.5 0-1.7.5-3.2 1.6-4.6 1-1.4 2.8-2.2 5.3-2.4 2.1.2 3.2.9 3.2 2v.6c0 .7-.4 2-1.3 3.8v.3l.2.2h.7l.9-.7c1.1-1.3 1.7-2.8 1.7-4.5v-.2c-.8-2.1-2.3-3.2-4.5-3.3-2.2-.3-4.3.4-6.4 1.9M-182 444c.1 1.7.2 4.1.2 7.1 0 3.1-.1 4.6-.2 4.6-.1.4-.1.6-.3.6-3.2 0-4.9.3-4.9 1.1v.2c-.1.7.2 1.1.8 1.2h.4l4-.3-.1.7-.4 17.6c0 2.6.1 5.5.2 8.6.3.3.7.4 1.2.2.5-.1.6-2.2.5-6.3l.4-20.3c.1-.8.1-1.1.2-1 4.5-.3 6.8-.8 6.9-1.6v-.2c-.1-.4-.4-.7-.7-.9h-.2c-3.2.3-5.1.4-5.7.3h-.4l-.1-.4c.5-9.7.5-14.4-.2-14l-.5-.1c-.8.3-1.2 1.3-1.1 2.9M-287.6 409.4l-7.4 1.8v.5c.3.5.6.7 1.2.7h1c7.2-1.9 12.5-3 15.8-3.1 0 .1.1 3.6.4 10.4.3 6.8.6 12.1.9 16 .5 10 1.5 15 2.9 15h.5c.9 0 1.4-.7 1.6-2.1v-.8c0-.3-.1-.6-.4-.7h-.1l-.1.1c-.3.8-.6 1.2-.7 1.2-.4-.3-.8-1.5-1.2-3.5-1.1-9.8-1.7-21.7-1.7-35.8 0 .1.4 0 1.2-.2 4.4-1 10.1-1.5 17-1.5 3.8.4 5.7.3 5.7-.4 0-.2-.1-.5-.4-.8l-1.6-.1c-11.4.1-23 1.2-34.6 3.3m17.6.3c.4 2 .5 12.6.4 31.9l.3.2h.5c1 0 1.6-1.5 1.8-4.6.5-4.3 1.3-8.2 2.5-11.6.9-3.3 2.2-5 3.8-4.9h.5c.5 0 .7 3.1.7 9.4 0 8.2.4 12.2 1.2 12.2h.2c.3 0 .7-.2 1.3-.5-.7-1.3-1-5.5-1.1-12.6 0-7.1-.4-10.6-1.2-10.7h-.1c-1.3-.5-2.8.4-4.5 2.7-1.7 2.3-2.9 6.2-3.6 11.5h-.2l-.1-.4c0-2.5-.1-7.5-.2-14.9s-.6-11.2-1.4-11.3c-.9.5-1.2 1.6-.8 3.6m20.9 10.2c-.8.7-1.6 1.9-2.4 3.5-.8 1.6-1.8 4.8-2.9 9.7-.2 2-.5 3.5-1 4.5l.1.5c1.4 2.5 2.6 3.8 3.6 3.8h.4c3.4 0 6.2-1.9 8.3-5.8 2.1-3.9 3.4-6.8 3.9-8.7.5-1.9.5-2.9-.1-2.9h-.2c-.3 0-.6.5-.8 1.5-.2 1-1.3 3.6-3.4 7.8-2 4.2-4.2 6.3-6.7 6.5h-.3c-.6 0-1.2-.3-1.6-1v-.4l1.8-1.5c4.4-6.7 6.5-11.5 6.4-14.3-.1-2.8-1-4.2-2.6-4.3h-.3c-.7 0-1.4.4-2.2 1.1m-2.4 8.3c1.7-4.8 3.4-7.5 4.9-7.8.6.5 1 1.6 1 3.3 0 1.7-.9 4.2-2.8 7.6-1.9 3.4-3.1 5-3.7 5-.4 0-.6-.5-.7-1.5v-.8c-.1-1.1.4-3.1 1.3-5.8"/>
  </g>
</svg>
